<svg width="29" height="29" viewBox="0 0 29 29" fill="none" xmlns="http://www.w3.org/2000/svg">
<path d="M16.9091 16.9087C16.597 17.2437 16.2206 17.5123 15.8024 17.6986C15.3843 17.885 14.9328 17.9851 14.4751 17.9932C14.0174 18.0013 13.5627 17.9171 13.1382 17.7456C12.7137 17.5742 12.3281 17.319 12.0044 16.9953C11.6806 16.6715 11.4254 16.2859 11.254 15.8614C11.0825 15.4369 10.9983 14.9823 11.0064 14.5245C11.0145 14.0668 11.1147 13.6154 11.301 13.1972C11.4873 12.779 11.756 12.4026 12.0909 12.0905M21.25 21.2496C19.3075 22.7303 16.9422 23.5506 14.5 23.5905C6.54545 23.5905 2 14.4996 2 14.4996C3.41351 11.8654 5.37402 9.56396 7.75 7.74963L21.25 21.2496ZM12.1136 5.68145C12.8958 5.49836 13.6967 5.40683 14.5 5.40872C22.4545 5.40872 27 14.4996 27 14.4996C26.3102 15.7901 25.4876 17.005 24.5455 18.1246L12.1136 5.68145Z" stroke="#8F9CB1" stroke-width="2.5" stroke-linecap="round" stroke-linejoin="round"/>
<path d="M2 2L27 27" stroke="#8F9CB1" stroke-width="2.5" stroke-linecap="round" stroke-linejoin="round"/>
</svg>
